# xmcd
#
# Track frame offsets:
#	150
#	3005
#	21500
#	31974
#	49707
#	63366
#	73981
#	87750
#	97362
#	111009
#	121394
#	136098
#
# Disc length: 1958 seconds
#
# Revision: 0
# Processed by: cddbd v1.4PL0 Copyright (c) Steve Scherf et al.
# Submitted via: EasyCDDAExtractor 4.6.0.1
#
DISCID=9f07a40c
DTITLE=Ohop Valley Boys - Up All Night at Chilliwack
DYEAR=2000
DGENRE=Bluegrass
TTITLE0=John Henry
TTITLE1=Take Me to the Mountains
TTITLE2=Red Georgia Clay
TTITLE3=Seven TImes
TTITLE4=Molly Rose
TTITLE5=Roanoke
TTITLE6=My One and Only
TTITLE7=Ryderwood
TTITLE8=This Lonesome Song
TTITLE9=How Mountain Girls Can Love
TTITLE10=Old Home Place
TTITLE11=Back 40 Ripoff
EXTD=
EXTT0=
EXTT1=
EXTT2=
EXTT3=
EXTT4=
EXTT5=
EXTT6=
EXTT7=
EXTT8=
EXTT9=
EXTT10=
EXTT11=
PLAYORDER=
